<?xml version="1.0" standalone="no"?><!DOCTYPE svg PUBLIC "-//W3C//DTD SVG 1.1//EN" "http://www.w3.org/Graphics/SVG/1.1/DTD/svg11.dtd"><svg t="1605531696363" class="icon" viewBox="0 0 1024 1024" version="1.1" xmlns="http://www.w3.org/2000/svg" p-id="31675" width="64" height="64" xmlns:xlink="http://www.w3.org/1999/xlink"><defs><style type="text/css"></style></defs><path d="M984.10624 976.96l-231.424-238.848a379.008 379.008 0 0 1-272.832 120.704C263.27424 861.888 83.81824 678.912 84.20224 455.36 84.65024 233.088 258.73024 53.76 474.28224 53.76c215.808 0 390.08 179.84 390.08 402.56a420.864 420.864 0 0 1-52.672 203.072 26.88 26.88 0 0 0 4.288 31.488c11.776 12.16 31.552 9.6 40.128-5.312 38.336-66.688 60.16-144.896 60.16-229.248C916.26624 204.032 718.57024 0 474.21824 0 229.54624 0 31.97824 203.84 31.97824 456.32c0 252.224 197.696 456.32 442.176 456.32a435.712 435.712 0 0 0 275.712-99.328l196.672 202.624a26.24 26.24 0 0 0 38.336-0.64 28.352 28.352 0 0 0-0.768-38.336z" p-id="31676" fill="#FFFFFF"></path><path d="M213.48224 424.192c15.552-128.64 116.352-229.568 242.112-241.28A27.136 27.136 0 0 0 479.97824 155.52a27.136 27.136 0 0 0-29.248-27.392c-150.912 14.016-272 135.168-290.56 289.024A27.264 27.264 0 0 0 186.85824 448a26.624 26.624 0 0 0 26.624-23.808z" p-id="31677" fill="#FFFFFF"></path></svg>